<?xml version="1.0" encoding="UTF-8"?>
<!DOCTYPE svg PUBLIC "-//W3C//DTD SVG 1.1//EN" "http://www.w3.org/Graphics/SVG/1.1/DTD/svg11.dtd">
<svg xmlns="http://www.w3.org/2000/svg" version="1.1" width="1000px" height="240px" style="shape-rendering:geometricPrecision; text-rendering:geometricPrecision; image-rendering:optimizeQuality; fill-rule:evenodd; clip-rule:evenodd" xmlns:xlink="http://www.w3.org/1999/xlink">
<g><path style="opacity:0.999" fill="#1cb1ff" d="M 184.5,45.5 C 185.49,93.7912 185.824,142.124 185.5,190.5C 178.356,198.411 171.522,198.078 165,189.5C 166.327,165.049 160.327,142.715 147,122.5C 126.506,99.9166 117.673,73.2499 120.5,42.5C 120.667,34.5 120.833,26.5 121,18.5C 125.749,8.82336 132.416,7.15669 141,13.5C 141.667,14.8333 142.333,16.1667 143,17.5C 143.333,34.8333 143.667,52.1667 144,69.5C 146.311,78.939 151.811,81.439 160.5,77C 161.667,75.1667 162.833,73.3333 164,71.5C 164.058,62.7316 164.725,54.065 166,45.5C 171.167,40 177,39.1667 183.5,43C 184.252,43.6708 184.586,44.5041 184.5,45.5 Z"/></g>
<g><path style="opacity:0.999" fill="#1fb1ff" d="M 85.5,40.5 C 91.8421,39.6709 96.5088,42.0042 99.5,47.5C 98.429,69.7287 103.429,90.3954 114.5,109.5C 126.921,122.335 135.754,137.335 141,154.5C 141.559,158.186 142.226,161.853 143,165.5C 143.667,183.5 143.667,201.5 143,219.5C 138.839,226.33 133.005,228.164 125.5,225C 123.263,222.97 121.763,220.47 121,217.5C 120.667,199.833 120.333,182.167 120,164.5C 117.419,157.813 112.586,155.646 105.5,158C 103.641,159.558 102.141,161.391 101,163.5C 100.667,171.5 100.333,179.5 100,187.5C 95.9883,196.004 89.8216,198.004 81.5,193.5C 80.1387,191.972 78.972,190.305 78,188.5C 77.3333,141.5 77.3333,94.5 78,47.5C 79.7424,44.2543 82.2424,41.921 85.5,40.5 Z"/></g>
<g><path style="opacity:0.947" fill="#fefffe" d="M 336.5,55.5 C 338.288,55.2148 339.955,55.5481 341.5,56.5C 358.186,94.7525 375.853,134.752 394.5,176.5C 385.833,177.833 377.167,177.833 368.5,176.5C 364.833,167.833 361.167,159.167 357.5,150.5C 344.167,149.167 330.833,149.167 317.5,150.5C 313.538,159.418 309.871,168.418 306.5,177.5C 298.833,177.5 291.167,177.5 283.5,177.5C 300.613,136.606 318.28,95.9395 336.5,55.5 Z M 337.5,102.5 C 341.736,111.195 345.403,120.195 348.5,129.5C 341.159,129.666 333.826,129.5 326.5,129C 330.461,120.281 334.128,111.448 337.5,102.5 Z"/></g>
<g><path style="opacity:0.974" fill="#00aeff" d="M 640.5,56.5 C 642.722,56.178 644.556,56.8446 646,58.5C 662.92,83.3412 680.087,108.008 697.5,132.5C 715.233,108.047 732.733,83.3799 750,58.5C 751.733,56.3985 753.733,56.0652 756,57.5C 756.5,97.832 756.667,138.165 756.5,178.5C 749.167,178.5 741.833,178.5 734.5,178.5C 734.667,157.497 734.5,136.497 734,115.5C 722.667,132.167 711.333,148.833 700,165.5C 697.733,166.935 695.733,166.602 694,164.5C 683.333,149.167 672.667,133.833 662,118.5C 661.5,138.497 661.333,158.497 661.5,178.5C 654.5,178.5 647.5,178.5 640.5,178.5C 640.5,137.833 640.5,97.1667 640.5,56.5 Z"/></g>
<g><path style="opacity:1" fill="#28b3ff" d="M 41.5,71.5 C 48.7398,70.3685 53.9064,73.0352 57,79.5C 57.6667,105.167 57.6667,130.833 57,156.5C 53.0399,165.067 46.8732,167.234 38.5,163C 36.9512,161.786 35.7845,160.286 35,158.5C 34.3333,131.5 34.3333,104.5 35,77.5C 36.737,74.9255 38.9036,72.9255 41.5,71.5 Z"/></g>
<g><path style="opacity:1" fill="#24b2ff" d="M 215.5,71.5 C 222.385,70.5699 227.219,73.2366 230,79.5C 230.667,105.5 230.667,131.5 230,157.5C 228.142,162.48 224.475,165.147 219,165.5C 213.926,164.759 210.26,162.092 208,157.5C 207.333,131.5 207.333,105.5 208,79.5C 209.353,75.6499 211.853,72.9832 215.5,71.5 Z"/></g>
<g><path style="opacity:0.956" fill="#fefffe" d="M 499.5,79.5 C 506.833,79.5 514.167,79.5 521.5,79.5C 521.5,88.8333 521.5,98.1667 521.5,107.5C 527.5,107.5 533.5,107.5 539.5,107.5C 539.5,113.5 539.5,119.5 539.5,125.5C 533.5,125.5 527.5,125.5 521.5,125.5C 521.5,142.833 521.5,160.167 521.5,177.5C 514.167,177.5 506.833,177.5 499.5,177.5C 499.5,160.167 499.5,142.833 499.5,125.5C 495.5,125.5 491.5,125.5 487.5,125.5C 487.5,119.5 487.5,113.5 487.5,107.5C 491.5,107.5 495.5,107.5 499.5,107.5C 499.5,98.1667 499.5,88.8333 499.5,79.5 Z"/></g>
<g><path style="opacity:0.955" fill="#00afff" d="M 873.5,79.5 C 880.5,79.5 887.5,79.5 894.5,79.5C 894.5,89.1667 894.5,98.8333 894.5,108.5C 900.683,108.047 906.683,108.547 912.5,110C 912.482,115.689 912.148,121.022 911.5,126C 905.843,126.499 900.176,126.666 894.5,126.5C 894.5,143.833 894.5,161.167 894.5,178.5C 887.5,178.5 880.5,178.5 873.5,178.5C 873.5,161.167 873.5,143.833 873.5,126.5C 869.833,126.5 866.167,126.5 862.5,126.5C 862.5,120.5 862.5,114.5 862.5,108.5C 866.167,108.5 869.833,108.5 873.5,108.5C 873.5,98.8333 873.5,89.1667 873.5,79.5 Z"/></g>
<g><path style="opacity:0.952" fill="#fefffe" d="M 580.5,104.5 C 606.996,103.513 621.996,116.013 625.5,142C 624.102,161.729 613.768,173.729 594.5,178C 578.408,181.022 564.574,176.856 553,165.5C 543,149.833 543,134.167 553,118.5C 560.735,110.876 569.901,106.209 580.5,104.5 Z M 580.5,123.5 C 589.896,121.789 596.729,125.122 601,133.5C 605.628,148.594 600.295,157.594 585,160.5C 570.525,157.561 565.191,148.894 569,134.5C 571.437,129.226 575.271,125.56 580.5,123.5 Z"/></g>
<g><path style="opacity:0.967" fill="#00afff" d="M 800.5,105.5 C 811.376,103.63 820.876,106.296 829,113.5C 829.494,111.866 829.66,110.199 829.5,108.5C 836.167,108.5 842.833,108.5 849.5,108.5C 849.5,131.833 849.5,155.167 849.5,178.5C 842.5,178.5 835.5,178.5 828.5,178.5C 828.662,176.473 828.495,174.473 828,172.5C 817.014,179.993 805.181,181.493 792.5,177C 783.467,172.778 777.301,165.945 774,156.5C 768.186,131.449 777.02,114.449 800.5,105.5 Z M 808.5,123.5 C 826.197,125.527 832.363,135.193 827,152.5C 818.08,163.485 808.413,164.151 798,154.5C 790.343,140.217 793.843,129.883 808.5,123.5 Z"/></g>
<g><path style="opacity:0.971" fill="#00afff" d="M 948.5,105.5 C 972.852,103.512 987.519,114.512 992.5,138.5C 976.548,144.429 960.548,150.262 944.5,156C 953.892,162.211 963.059,161.711 972,154.5C 976.374,159.587 979.374,165.254 981,171.5C 970.648,178.961 959.148,181.461 946.5,179C 927.912,174.019 918.246,161.852 917.5,142.5C 919.553,123.122 929.886,110.789 948.5,105.5 Z M 950.5,123.5 C 957.546,122.235 963.213,124.402 967.5,130C 958.652,133.785 949.652,137.285 940.5,140.5C 939.149,136.934 939.649,133.601 942,130.5C 944.441,127.546 947.275,125.213 950.5,123.5 Z"/></g>
<g><path style="opacity:0.938" fill="#fefffe" d="M 404.5,107.5 C 411.833,107.5 419.167,107.5 426.5,107.5C 426.333,123.503 426.5,139.503 427,155.5C 428.399,159.238 431.066,160.904 435,160.5C 443.496,159.673 448.496,155.006 450,146.5C 450.333,133.833 450.667,121.167 451,108.5C 458.413,107.519 465.913,107.186 473.5,107.5C 473.5,130.833 473.5,154.167 473.5,177.5C 466.5,177.5 459.5,177.5 452.5,177.5C 452.663,175.143 452.497,172.81 452,170.5C 441.966,179.397 430.466,181.897 417.5,178C 411.18,175.014 407.013,170.181 405,163.5C 404.5,144.836 404.333,126.17 404.5,107.5 Z"/></g>
<g><path style="opacity:0.894" fill="#2da9ff" d="M 184.5,45.5 C 185.966,46.347 186.8,47.6803 187,49.5C 187.667,95.1667 187.667,140.833 187,186.5C 186.79,188.058 186.29,189.391 185.5,190.5C 185.824,142.124 185.49,93.7912 184.5,45.5 Z"/></g>
</svg>
